<svg xmlns="http://www.w3.org/2000/svg" viewBox="0 0 129.9 117.45"><defs><style>.cls-1,.cls-2{fill-rule:evenodd;}.cls-2{fill:#fff;}</style></defs><g id="Layer_2" data-name="Layer 2"><g id="Layer_1-2" data-name="Layer 1"><path d="M66.6,17.4a35,35,0,0,0-2-2.94c-.31-.41-.64-.81-1-1.21a37.11,37.11,0,0,0-7.47-6.76c-.48-.32-1-.64-1.45-.94A38.31,38.31,0,0,0,49.3,2.78c-.42-.18-.84-.34-1.27-.5A34.85,34.85,0,0,0,43.15.83C42.33.64,41.51.49,40.68.37a34.16,34.16,0,0,0-5-.37A35.77,35.77,0,0,0,21.41,3c-.87.38-1.73.8-2.57,1.24A36.51,36.51,0,0,0,13.36,7.8,35.29,35.29,0,0,0,5.7,16.31a34.43,34.43,0,0,0-1.87,3.31c-.35.69-.68,1.4-1,2.12a36.9,36.9,0,0,0,1,30.58A36.47,36.47,0,0,0,5.7,55.66a34.75,34.75,0,0,0,7.66,8.54,34.29,34.29,0,0,0,5.48,3.55c.83.42,1.69.82,2.57,1.19h0a38.09,38.09,0,0,0,7.7,2.28,35.57,35.57,0,0,0,11.57.22c.83-.12,1.66-.27,2.47-.44A36.54,36.54,0,0,0,48,69.56a35.65,35.65,0,0,0,6.64-3.28c.49-.31,1-.63,1.45-1a36.53,36.53,0,0,0,7.47-7c.33-.41.66-.83,1-1.26a35.36,35.36,0,0,0,2-3.06,37.17,37.17,0,0,0,2.34-4.63A34.17,34.17,0,0,0,66.6,17.4ZM51,4.88A35.3,35.3,0,0,1,54.67,7c.49.33,1,.67,1.45,1a34.28,34.28,0,0,1,7.47,7.7l.24.34a11.38,11.38,0,0,1-.13,2.42c0,.19-.07.38-.11.57a9.55,9.55,0,0,1-.68,2,37,37,0,0,0-6.79-3.8l-1.45-.61c-1.15-.46-2.33-.87-3.52-1.26A38.82,38.82,0,0,0,48,9,41.32,41.32,0,0,0,45.5,5.23,10.85,10.85,0,0,1,48,4.77,15.09,15.09,0,0,1,51,4.88ZM29.11,47.43c-2.66-2.28-5.2-4.69-7.7-7.14l-2.57-2.57-.42-.41.42-1.11c.81-2.13,1.66-4.23,2.57-6.31,1.09-2.49,2.25-4.94,3.5-7.37,1.39.06,2.8.17,4.2.31s2.51.29,3.77.48c.92.14,1.84.29,2.77.46,1.66.3,3.34.65,5,1l.24.05.19.1a74.66,74.66,0,0,1,2,8.72,39.16,39.16,0,0,1,.57,6.87.37.37,0,0,1-.23.3l-.34.22c-.81.51-1.63,1-2.47,1.51-1.64,1-3.32,1.93-5,2.82-1.87,1-3.78,1.91-5.7,2.75Zm.48,1.17c-.1,3.66-.2,7.5-.48,11.23,0,.32,0,.65-.07,1a34.9,34.9,0,0,1-5.42,1c-.73.07-1.47.13-2.21.16s-1.7.05-2.57,0l-1.06,0a44.77,44.77,0,0,1-4.42-3.47c-.47-.42-.93-.85-1.38-1.28a58,58,0,0,1-5-5.52s0,0,0,0a33.34,33.34,0,0,1-.55-6A35.39,35.39,0,0,1,7,39.88a65.84,65.84,0,0,1,6.41-1.58c1.51-.3,3-.53,4.55-.68l.93.94,2.57,2.55c2.49,2.44,5,4.82,7.7,7.09ZM21.41,14.14c-.42-.86-.85-1.72-1.29-2.57.41-.53.85-1,1.29-1.54a34.54,34.54,0,0,1,7.7-6.32L30,3.18a.29.29,0,0,0,.31,0,30.78,30.78,0,0,1,5.35.07c.63.06,1.25.15,1.87.24,1.06.17,2.12.38,3.16.64.83.21,1.65.44,2.47.69.55.17,1.09.35,1.64.54S47.34,9,48,10.12c.09.14.15.25.19.32a30.46,30.46,0,0,1,2.35,5.18c-.86.69-1.7,1.39-2.54,2.1-1.68,1.44-3.3,2.93-4.88,4.48-.69.68-1.38,1.38-2.06,2.08l-.41-.09c-1.68-.37-3.35-.72-5-1-2.17-.39-4.35-.71-6.54-.93-1.39-.15-2.79-.25-4.19-.31C23.85,19.28,22.67,16.69,21.41,14.14Zm8.77,34.55c1.84-.81,3.67-1.7,5.47-2.63s3.39-1.83,5-2.8c.84-.5,1.66-1,2.47-1.51l.83-.52c1.36.54,2.71,1.1,4.05,1.67,2.24,1,4.45,2,6.64,3l1.45.73.56.3a39.81,39.81,0,0,1-.56,7.5,38.29,38.29,0,0,1-1.2,4.86.29.29,0,0,0-.19.17l-.06,0a46.12,46.12,0,0,1-6,3.61l-.68.34a40.83,40.83,0,0,1-4.88,2l-1,.3a.23.23,0,0,0-.2.06h0c-.43-.09-.85-.19-1.28-.3a37.39,37.39,0,0,1-5-1.64l-.06,0a43.6,43.6,0,0,1-6-3C30,56.86,30.07,52.66,30.18,48.69ZM56.12,46c-.48-.25-1-.49-1.45-.72-2.18-1.07-4.4-2.07-6.64-3-1.23-.53-2.47-1-3.72-1.54a45,45,0,0,0-1.16-10.19c-.43-2-1-4-1.53-6L43.15,23C44.73,21.46,46.35,20,48,18.5c1-.86,2-1.71,3.06-2.53,1.2.39,2.4.82,3.58,1.3.48.19,1,.4,1.45.61l.85.39a35,35,0,0,1,5.8,3.4c.31.75.58,1.49.82,2.24a35.48,35.48,0,0,1,1,3.52q.21.88.36,1.77a66.45,66.45,0,0,1,.87,7.51c-.39.61-.8,1.21-1.23,1.79s-.64.86-1,1.27q-.92,1.15-1.92,2.22a38.67,38.67,0,0,1-4.84,4.38Zm-27-44.2a33.94,33.94,0,0,1,6.54-.61,32.78,32.78,0,0,1,5,.39c.83.12,1.65.28,2.47.46A34.3,34.3,0,0,1,48,3.54c.5.19,1,.4,1.49.62-.42,0-.84,0-1.25,0l-.24,0a11,11,0,0,0-3.06.6c-.6-.21-1.21-.41-1.82-.59-.82-.26-1.64-.48-2.47-.69-1-.24-2-.45-3.06-.61-.66-.1-1.31-.19-2-.25a30.8,30.8,0,0,0-5.52-.06l-1-.56-.29-.16ZM8.66,14.19A34.11,34.11,0,0,1,18.84,5.54c.84-.47,1.7-.9,2.57-1.3l1.18-.51a35.33,35.33,0,0,1,5.29-1.68,9.28,9.28,0,0,1,1.23.62l.3.17-.3.18a35.93,35.93,0,0,0-7.7,6.14c-.62.67-1.22,1.36-1.8,2.09l-.77.09a35.8,35.8,0,0,0-5.48,1.16,33,33,0,0,0-4.72,1.81ZM3.83,23.83c.34-.89.71-1.79,1.12-2.67.24-.52.49-1,.75-1.54A34.51,34.51,0,0,1,8.5,15a31.85,31.85,0,0,1,4.86-1.91l.53-.16a36.17,36.17,0,0,1,4.95-1l.66-.08.14.06c.61,1.19,1.2,2.38,1.77,3.56,1.07,2.21,2.06,4.42,3,6.73-1,2.05-2,4.13-3,6.23s-1.76,4.06-2.57,6.12c-.32.82-.64,1.64-.94,2.47-1.51.15-3,.38-4.54.67-2.19.42-4.38,1-6.53,1.59-.39-.65-.77-1.32-1.13-2-.49-1-.94-1.94-1.36-3-.18-.43-.35-.86-.51-1.3Q3,30.82,2.33,28.42A45.35,45.35,0,0,1,3.83,23.83Zm0,24.67,0,0A34.19,34.19,0,0,1,1.87,29a53,53,0,0,0,2,5.65A36.59,36.59,0,0,0,5.7,38.52c.22.4.45.78.69,1.17a33.89,33.89,0,0,0-.06,11.5l-.63-.36A6.8,6.8,0,0,1,4.5,50C4.27,49.53,4,49,3.83,48.5Zm15,16.93A33.88,33.88,0,0,1,5.7,52.37L5,51.1l.68.39.82.47a57.68,57.68,0,0,0,5.06,5.63c.58.56,1.17,1.11,1.78,1.64a46.86,46.86,0,0,0,3.88,3h0a13.94,13.94,0,0,0,1.59,2.6q.39.51.81,1Zm16.81,4.36a33.74,33.74,0,0,1-6.54-.61,34.62,34.62,0,0,1-6.84-2.07l-.86-.38-.23-.1a18.8,18.8,0,0,1-1.66-1.83c-.24-.31-.46-.62-.68-.94S18.28,63,18,62.52l.81,0c.86,0,1.72,0,2.57,0a37.06,37.06,0,0,0,7.7-1.11l.16,0a44,44,0,0,0,6.38,3.17,37.81,37.81,0,0,0,5,1.62l1,.23a7.74,7.74,0,0,1-1,1.39c-.1.12-.21.24-.32.35a14.81,14.81,0,0,1-1.76,1.54C37.62,69.74,36.64,69.79,35.65,69.79Zm20.47-6.85c-.48.35-1,.69-1.45,1a34.41,34.41,0,0,1-11.52,5c-.81.19-1.64.34-2.47.47l-1,.14c.35-.3.69-.6,1-.91l.1-.11h0a8.5,8.5,0,0,0,1.58-2.2l.79-.25a39.35,39.35,0,0,0,4.88-2,49.06,49.06,0,0,0,6.64-3.85,5.82,5.82,0,0,1,.52-.36c.06,0,.39,0,.93-.09a17.38,17.38,0,0,0,4.82-1.24A34.36,34.36,0,0,1,56.12,62.94ZM67.17,48.77c-.18.44-.37.87-.57,1.3a34.19,34.19,0,0,1-2,3.72c-.31.5-.63,1-1,1.46-.53.76-1.1,1.5-1.69,2.21a16.68,16.68,0,0,1-3,1.2,15.67,15.67,0,0,1-2.79.56l-.57.05c.21-.66.4-1.33.57-2a39.54,39.54,0,0,0,1.15-10.49,39.49,39.49,0,0,0,6.32-6.07c.33-.4.66-.81,1-1.23.55-.71,1.07-1.45,1.57-2.21l.47.54a12.78,12.78,0,0,1,2.47,5A33.9,33.9,0,0,1,67.17,48.77ZM66.6,37a2,2,0,0,1-.22-.27,67.88,67.88,0,0,0-.88-7.59,39.1,39.1,0,0,0-.94-4c-.27-1-.6-1.94-1-2.91-.08-.21-.16-.43-.25-.64.09-.18.17-.37.25-.55a10.67,10.67,0,0,0,.84-4l.13.21a33.6,33.6,0,0,1,2,3.72,34.2,34.2,0,0,1,2.72,20.65A13.21,13.21,0,0,0,66.6,37Z"/><path class="cls-1" d="M69.65,28.72l-1.31-5c-2,5.57-8.92,4.88-18.92-3.75-10.24-8.85-12.34-15.48-8-18.4L34.72.76c.93,1.18-.29,3.37-2.71,5.86C25.52,13.31,10.35,22.13,4.63,19.16L2.88,23.11C9,25.4,14.77,57.23,8,57.38L13.4,63c-3.08-6.69,8.19-7.22,16.84-5.43l1.77.4c9.54,2.2,18.72,6.27,14.93,10.84l7.94-4c-8-.73-5.79-10.72-1.57-20.07C57.93,34.47,66.73,28,70.43,33.58ZM49.91,42.47A18.55,18.55,0,0,1,32,53.74a19.76,19.76,0,0,1-7.63-1.55c-4.48-2-10.76-7.29-11.61-15.44a20.52,20.52,0,0,1,1.49-10,17.57,17.57,0,0,1,5.89-7.3A19.58,19.58,0,0,1,32,15.71a18,18,0,0,1,7.39,1.52,21,21,0,0,1,10.75,11.5A18.38,18.38,0,0,1,49.91,42.47Z"/><polygon class="cls-1" points="128.47 107.68 98.36 80.65 106.39 76.36 88.1 58.78 95.12 56.39 75.09 31.39 109.46 59.72 100.9 61.8 120.41 79.55 111.73 82.06 128.47 107.68"/><polygon class="cls-2" points="120.54 98.86 108.59 80.58 116.68 78.23 97.08 60.38 105.48 58.35 83.65 40.35 97.04 56.66 90.31 58.95 108.19 76.54 100.23 80.81 120.54 98.86"/><polygon class="cls-1" points="30.3 77.84 76.36 84.79 71.35 94 100.06 99.33 94.82 106.07 129.9 117.45 78.92 111.94 85.84 104.53 55.85 99.79 62.6 91.89 30.3 77.84"/><polygon class="cls-2" points="39.01 80.01 65.14 91.23 59.32 98.01 88.91 103.44 82.77 109.79 115.74 114.88 91.71 106.25 96.37 100.41 68.42 94.48 72.99 85.74 39.01 80.01"/><polygon class="cls-1" points="75.62 55.81 95.81 78.39 74.47 58.73 75.62 55.81"/><polygon class="cls-1" points="70.2 63.72 67.27 66.88 119.62 108.92 70.2 63.72"/></g></g></svg>