<svg xmlns="http://www.w3.org/2000/svg" xmlns:xlink="http://www.w3.org/1999/xlink" viewBox="0 0 381.78 314.1"><defs><style>.cls-1{fill:none;}.cls-2{isolation:isolate;}.cls-12,.cls-3,.cls-5,.cls-8,.cls-9{mix-blend-mode:multiply;}.cls-3{opacity:0.3;fill:url(#linear-gradient);}.cls-4,.cls-5{fill:#2771d8;}.cls-12,.cls-5,.cls-8,.cls-9{opacity:0.5;}.cls-6,.cls-8{fill:#ffb294;}.cls-7{fill:#fff;}.cls-9{fill:#ccc;}.cls-10{fill:#db162a;}.cls-11{fill:#ffa07a;}.cls-12{fill:#850d19;}.cls-13{clip-path:url(#clip-path);}.cls-14{opacity:0.2;}.cls-15{fill:#333;}.cls-16{fill:#999;}</style><linearGradient id="linear-gradient" x1="-1845.35" y1="215.55" x2="-1845.35" y2="-12.24" gradientTransform="matrix(-1, 0, 0, 1, -1654.71, 0)" gradientUnits="userSpaceOnUse"><stop offset="0" stop-color="#fff"/><stop offset="1" stop-color="#2771d8"/></linearGradient><clipPath id="clip-path"><path class="cls-1" d="M22.74,190.33A15.93,15.93,0,1,0,22,167.8,15.92,15.92,0,0,0,22.74,190.33Z"/></clipPath></defs><g class="cls-2"><g id="Layer_2" data-name="Layer 2"><g id="Layer_1-2" data-name="Layer 1"><path class="cls-3" d="M.83,314.1V143.65A11.62,11.62,0,0,1,12.46,132h.47a11.63,11.63,0,0,0,11.63-11.63V78.48A11.63,11.63,0,0,1,36.18,66.85h.47A11.63,11.63,0,0,1,48.28,78.48v13.2a11.63,11.63,0,0,0,11.63,11.63h.47A11.63,11.63,0,0,0,72,91.68V87.46a12.22,12.22,0,0,1,12-12.33A11.63,11.63,0,0,0,95.74,63.51V54.69a11.63,11.63,0,0,1,11.63-11.63h.46a11.63,11.63,0,0,1,11.63,11.63V74.2a11.63,11.63,0,0,0,11.63,11.63h.47A11.62,11.62,0,0,0,143.19,74.2V38.79a11.63,11.63,0,0,1,11.63-11.63h.47a11.63,11.63,0,0,1,11.63,11.63,11.63,11.63,0,0,0,11.63,11.63,12.1,12.1,0,0,0,12.1-12.1V34.89a11.63,11.63,0,0,1,11.63-11.63h.46a11.63,11.63,0,0,0,11.63-11.63A11.63,11.63,0,0,1,226,0h.47A11.63,11.63,0,0,1,238.1,11.63V47.05a11.63,11.63,0,0,0,11.63,11.63h.47a11.63,11.63,0,0,0,11.63-11.63V27.53A11.63,11.63,0,0,1,273.46,15.9h.47a11.63,11.63,0,0,1,11.63,11.63v8.82A11.63,11.63,0,0,0,297.19,48a12.09,12.09,0,0,1,12.09,12.1v4.44a11.63,11.63,0,0,0,11.63,11.63h.47A11.63,11.63,0,0,0,333,64.52V51.33A11.63,11.63,0,0,1,344.64,39.7h.47a11.63,11.63,0,0,1,11.63,11.63v41.9a11.63,11.63,0,0,0,11.63,11.63h.47a11.63,11.63,0,0,1,11.63,11.63V314.1Z"/><ellipse class="cls-4" cx="190.89" cy="198.16" rx="190.89" ry="110.21"/><path class="cls-5" d="M295.17,269.71l-180.73-8.4c-12.26-.57-15-9.65-7.14-18.94,6.8-8.09,19.42-13.55,28.94-13.11l151.55,7c15,.7,50.44,4.7,39.63,19.29C319.85,265.79,307.43,270.28,295.17,269.71Z"/><path class="cls-5" d="M168.75,194.06,136.7,212.57c-8.31,4.79-21.77,4.79-30.08,0s-8.3-12.57,0-17.36l32-18.51c8.31-4.79,21.77-4.79,30.08,0S177.05,189.27,168.75,194.06Z"/><path class="cls-5" d="M306.17,137.14,233.64,179c-8.31,4.8-21.77,4.8-30.08,0s-8.3-12.56,0-17.36l72.54-41.82c8.3-4.79,21.77-4.79,30.07,0S314.48,132.34,306.17,137.14Z"/><path class="cls-6" d="M190.89,42.37l1.72-2.51c1.6,2.11,4.84,5.78,8,5.76l-1.46,1.49S186.68,65.62,181.27,69.4l-3.87-1.61S186,46.75,190.89,42.37Z"/><path class="cls-7" d="M192.61,39.86c1.6,2.11,4.84,5.77,8,5.76l1.4-1.41,8.19-8.27-6.06-12.86L193.74,38.2Z"/><path class="cls-7" d="M209.74,125.59c.23,1.08.47,2.18.72,3.31.33,1.44.68,2.92,1,4.43,1.66,6.94,3.57,14.58,4.86,22.73.72,1.3,3.39,2.62,6,2.29,2.27-.28,4.53-2,4.34-3.69-.76-8.44,1-14.46,1.56-20a24.74,24.74,0,0,0,0-5.44,17.85,17.85,0,0,0-1-4.12,20.14,20.14,0,0,0-1-2.25A16.28,16.28,0,0,1,223,125,16.7,16.7,0,0,1,209.74,125.59Z"/><path class="cls-6" d="M208.67,118.81a59.79,59.79,0,0,0,1.07,6.78A16.7,16.7,0,0,0,223,125a16.28,16.28,0,0,0,3.24-2.12,25.62,25.62,0,0,0-1.88-3l.93-1.8c-6.12.69-12-2.25-16-6.88-.06.41-.11.83-.15,1.24A62.56,62.56,0,0,0,208.67,118.81Z"/><path d="M209.27,111.16c3.95,4.63,9.85,7.57,16,6.88l2.19-4.25,13.16-25.53-6.35-8.05-9.94-7.66c-7.54,12.26-12.94,24.8-14.86,37.42C209.39,110.37,209.33,110.76,209.27,111.16Z"/><path d="M286.6,78.91s-.56-4,1.45-6.5c1.47-1.81,3.11-1.65,5.05-.84a20.51,20.51,0,0,1,6.12,4.76A29.46,29.46,0,0,0,305.79,82a12.31,12.31,0,0,1,4.7,7.82c.51,3.5.43,4.37-1.48,6s-4.69,1.64-8.28-2.5-5.62-5.11-7.62-5.71S286.6,78.91,286.6,78.91Z"/><path class="cls-7" d="M294.64,83.71c0,.09,6.65,4.1,7.15,7-.05,1.2-.16,1.32-1.09,1.17,0,0-5.54-5.48-6.85-5.24S294.64,83.71,294.64,83.71Z"/><path class="cls-7" d="M281.8,111.07c.87-1.51,1.78-3.18,2.71-5,.72-1.38,1.44-2.84,2.18-4.36,2.2-4.54,4.48-9.63,6.81-14.91,1.24-1.73,1.94-5.53.35-7.93-1-1.48-4.08-3.87-6-2-4.24,7.33-9.2,9.09-12.8,11.49a11.61,11.61,0,0,0-2.89,2.6,9,9,0,0,0-1.35,2.63A21.76,21.76,0,0,1,281.8,111.07Z"/><path class="cls-6" d="M255.38,105.53c.78,1.07,1.57,2.11,2.36,3.1,5.7,7.14,11.38,11.75,16.32,11,2.1-.17,4.76-3.42,7.73-8.54,2.68-7.43-4.61-14.85-11-17.44l-.15.48-.22-.58C268.17,99.64,261.28,103.6,255.38,105.53Z"/><path d="M243.58,91.88a161.78,161.78,0,0,0,12.57,20.05c3.25,2.08,11.39-2.86,15.51-7.77.49-.58.93-1.17,1.34-1.75A14.6,14.6,0,0,0,274.86,99l-11.4-22.74c-4.23-11.52-11.08-17.55-21-17L224.29,72.55C226.19,79,233.9,92.21,243.58,91.88Z"/><path d="M226.67,154.65a15.57,15.57,0,0,1,3.73,9.95s-.25,3.25-5.7,4-5.23.23-7.39,1.22-3.36,3.46-8.65,5.25-8.27.22-7.91-3.81,4.69-5.21,7.05-6.26c3.68-1.64,8.09-5.72,8.58-8.91,2.48.61,3.67,2.23,5.54,2C224.5,157.86,226.69,156.26,226.67,154.65Z"/><path class="cls-7" d="M218.9,157.17s-.5,4.78-6.14,8.25c-1.4.84-3.24-.65-1.73-1.5,0,0,5.15-3.83,5.94-7.65C217.52,155.59,218.83,156.34,218.9,157.17Z"/><path class="cls-7" d="M256.7,74.78c2.56,4.88,11,21.62,15,29.38.49-.58.93-1.17,1.34-1.75-4.09-8.08-12.08-23.83-14.55-28.55-3.57-6.79-8-9.83-14.34-9.83v2C249.7,66,253.47,68.64,256.7,74.78Z"/><path d="M284.51,106.08c.72-1.38,1.44-2.84,2.18-4.36-.08-.39-2.3-11-11.67-13.31a11.61,11.61,0,0,0-2.89,2.6A18.46,18.46,0,0,1,284.51,106.08Z"/><path class="cls-7" d="M246.61,75a37.91,37.91,0,0,1-7.8,2.83c-4.26.9-8.66.35-13.88-3.58,0,0-4.33-5-9.23-11.52l-.93-1.26c-1.2-1.61-2.41-3.33-3.6-5.08-.16-.22-.31-.46-.47-.68-5-7.49-9.24-15.47-8.64-20.31,1.37-11.14,1.24-22.23,12.66-18.52,2.57.84,4.73,4.8,7.56,6.83s8.53,2.05,13.06,5.1C243.74,34.4,255,63.34,255,63.34S256.42,70.53,246.61,75Z"/><path d="M211.94,44.32c.31-.59.79-1.4,1.34-2.33,3.53-6,8.87-15,4.64-18.8-6.33-5.76-7-5.76-7.53-5.76a1.28,1.28,0,0,0-1,.42c-4,3.83-8.66,8.8-8.66,10.78s5.68,10.74,9.07,15.79l1.14,1.7Z"/><path class="cls-6" d="M210.32,18.68c.27-.5,6.78,5.43,6.78,5.43,4.13,3.66-4.18,15.75-6.24,19.63,0,0-8.87-13.22-8.87-15.11S210.32,18.68,210.32,18.68Z"/><path class="cls-8" d="M208.28,21.21l2.44,8.58s6.2,17.7-2.08,15.49c-3.06-.82-7.27-13.24-7.27-13.24l-1.32-7.16Z"/><path class="cls-6" d="M210.26,29.79A9,9,0,0,1,208.7,34c-1.32,1.6-6.3,4.82-7.75,5a4.16,4.16,0,0,1-3.63-.92c-1.12-.94-4.19-9.46-4.19-9.46a7.83,7.83,0,0,1-1.11-3c-1-6.44,2.86-11.82,5.36-14.06a9.95,9.95,0,0,1,16.26,5.12c.66,3.23,0,8.44,0,8.44Z"/><path d="M203.91,8.74a11.25,11.25,0,0,1,2.63.31,10.21,10.21,0,0,1,7.47,7.6,33.05,33.05,0,0,1,0,8.56v.1c-.57,1.8-1.38,2.89-2.43,3.32l-.87-1.46-.18.06a2.38,2.38,0,0,1-2.86-1.07c-.48-.86-1.88-4.22-2.54-4.95-4.53-3.78-12.15,3-13.25-2.56C190.87,13.59,195.36,8.74,203.91,8.74Z"/><path class="cls-6" d="M211.24,25.08a1.74,1.74,0,0,1,1.74.54,2.53,2.53,0,0,1,.57,1.78,4.71,4.71,0,0,1-.53,1.83,2.13,2.13,0,0,1-1.21,1.23C209.29,31.12,209,25.76,211.24,25.08Z"/><path class="cls-9" d="M255,63.35s1.38,7.18-8.42,11.61c3-27.07-11.93-23.42-12.64-34L240,33.74C247.41,43.84,255,63.35,255,63.35Z"/><path class="cls-6" d="M182.66,65.38l-1.39,4a10.57,10.57,0,0,1-2.2,4.09,28.58,28.58,0,0,1-4.29,4.32l1.35.33c1.27.32.65,2-.5,1.81.65.56-.16,1.27-1.08,1,.75.48.54,1.55-.46,1.22,0,0-2.63-.53-3.32-1.64s-.5-1.45-.5-1.45A1.62,1.62,0,0,1,169,76.86c.16-.66.3-1.11.3-1.11s-.88-.27.27-2.07A37.1,37.1,0,0,1,173.71,69l3.69-1.23,3-3.36Z"/><path d="M192.61,39.86c1.6,2.11,4.84,5.77,8,5.76l1.4-1.41s-4.46-.55-8.24-6C193.74,38.2,192.61,39.86,192.61,39.86Z"/><path class="cls-6" d="M255.43,26.05a79.38,79.38,0,0,1,10.64,1.45c11.11,1.8,21.14,5.16,30.31,11.44v5.6l-30-7.44c-3.24.65-6.46,1-9.7,1.41A18.48,18.48,0,0,0,255.43,26.05Z"/><path class="cls-7" d="M235.76,41.91c6.27-1.86,12.35-2.5,18.38-3.14l2.5-.27a18.46,18.46,0,0,0-1.22-12.45l-2.32-.14a166.17,166.17,0,0,0-22.48.66C224.3,28.63,228.38,43.74,235.76,41.91Z"/><path d="M253,26.05c2.08,3.41,2.42,9.1,1.13,12.72l2.5-.27a18.46,18.46,0,0,0-1.22-12.45l-2.32-.14Z"/><path d="M210.46,128.9c.33,1.44.68,2.92,1,4.43,0,0,9,1.82,15.22-2.82a12.92,12.92,0,0,0,1.5-1.3,17.85,17.85,0,0,0-1-4.12,9.94,9.94,0,0,1-2.41,2.11c-2.5,1.62-7.09,3.33-14.33,1.69Z"/><path class="cls-6" d="M292.17,38.17l4.21.77,6.28-.39,6.87,1.1a1.22,1.22,0,0,1,.22,2.39c2.49.17,2.63,2.93.09,2.68,2.14.78,1.14,3.18-1.31,2.69,2.31.62,1.94,2.67-.66,2.49h-1.71s-3.26,1.24-5.31.53-4.47-5-4.47-5l-1.33-1.25Z"/><path class="cls-8" d="M257.74,108.63c5.7,7.14,11.38,11.75,16.32,11,2.1-.17,4.76-3.42,7.73-8.54-.37.3-10.64,8.56-12.92-4.11l-5.55-2.81Z"/><path class="cls-8" d="M209.12,112.4a13.5,13.5,0,0,0,8.31,8.78A16,16,0,0,1,223,125a16.51,16.51,0,0,1,1.85,2.24,20.1,20.1,0,0,1,1.93,3.31,20.68,20.68,0,0,1,1.5,4.14,24.74,24.74,0,0,0,0-5.44,17.85,17.85,0,0,0-1-4.12,20.14,20.14,0,0,0-1-2.25,25.62,25.62,0,0,0-1.88-3l.93-1.8,2.19-4.25-18-3.82c-.05.4-.11.79-.17,1.19S209.16,112,209.12,112.4Z"/><path d="M217.61,59.09l-1-1.79-3.57.07-.65-1.15.41-4.63,2.31-.05L217.61,56l1,0,.75,1.32-1,0,1,1.79ZM215.83,56l-1-1.66c-.26-.45-.5-.92-.74-1.4,0,.49,0,.93,0,1.41L214,56S215.83,56,215.83,56Z"/><path class="cls-6" d="M51.27,91.38l1.95-2.84c1.81,2.39,5.49,6.55,9.05,6.53l-1.66,1.69S46.5,117.75,40.37,122L36,120.2S45.75,96.35,51.27,91.38Z"/><path class="cls-10" d="M53.21,88.54c1.82,2.39,5.5,6.54,9.06,6.53l1.59-1.6,9.28-9.38L66.27,69.52,54.5,86.66Z"/><path class="cls-10" d="M114.64,162.82c10,6.52,8.14,16.42,16.69,29,2.2,3.06-5.66,8.08-8.15,6.52-7.43-9.49-16.05-17.43-22.26-24.62A17.42,17.42,0,0,0,114.64,162.82Z"/><path class="cls-11" d="M111.32,158.89l.06,2.13a26.66,26.66,0,0,1,3.26,1.8,17.42,17.42,0,0,1-13.72,10.93,63.25,63.25,0,0,1-4.46-5.68,71.66,71.66,0,0,1-3.35-7.35C99.1,163,106,162.65,111.32,158.89Z"/><path d="M87.06,114.17l13.22,5.32,10,4.16,1.09,35.24C106,162.65,99.1,163,93.11,160.72,88.08,147.84,86.37,129.77,87.06,114.17Z"/><path d="M145.06,162.08s1.89-3.84,5.1-4.81c2.34-.71,3.67.39,4.89,2.24a21.49,21.49,0,0,1,2.54,7.75A31,31,0,0,0,160,176.1c.87,2.26,2.26,7.52.64,10.88s-2.89,5.26-5.55,5.61-5.5-3.82-6.19-9.55-1.9-7.76-3.29-9.46S145.06,162.08,145.06,162.08Z"/><path class="cls-7" d="M149.26,171c-.07.08,3.38,7.49,2.15,10.27-.76,1-.93,1.06-1.65.38,0,0-1.61-8-2.89-8.6S149.26,171,149.26,171Z"/><path class="cls-10" d="M122,187.31c1.65-.79,3.42-1.72,5.3-2.75,1.43-.79,2.93-1.63,4.47-2.53,4.58-2.66,9.57-5.76,14.71-9,2.1-.78,4.95-3.69,5-6.71,0-1.88-1.28-5.78-4.11-5.26-8,3.89-13.38,2.51-17.93,2.49a12,12,0,0,0-4.05.57,9.38,9.38,0,0,0-2.73,1.5A22.87,22.87,0,0,1,122,187.31Z"/><path class="cls-6" d="M122.32,165.31l-.14.64.41-.32c4.06,6,6.06,16.78-.65,21.68-5.61,2.72-9.84,4-11.77,2.91-5.42-2.56-7.58-11.74-8-23.29C108.45,168.72,116.78,169.32,122.32,165.31Z"/><path d="M103.4,139.8a205.15,205.15,0,0,0-1.24,27.13c1.6,3.74,10,3.81,16.44,2,.76-.21,1.5-.45,2.2-.72a15.36,15.36,0,0,0,3.65-1.87L128,139.8c3.16-12.52.8-21.83-8.16-27.31l-28.8,12.66C93.08,132.3,96.37,138.06,103.4,139.8Z"/><path d="M131.33,191.85a16.35,16.35,0,0,1,6.34,9.21s.56,3.38-4.82,5.51-5.29,1.56-7.24,3.12-2.56,4.38-7.5,7.55-9.43,3.41-10.08-.79,4.5-7.6,6.65-9.28c3.34-2.6,6.81-7.89,6.5-11.27,2.7,0,4.32,1.34,6.18.68C129.93,195.67,131.76,193.49,131.33,191.85Z"/><path class="cls-7" d="M124,196.39s.7,5-4.18,10c-1.21,1.2-3.47.16-2.14-1.1,0,0,4.28-5.21,4.12-9.31C122.23,195.12,123.75,195.55,124,196.39Z"/><path class="cls-10" d="M123,134.52c-.67,5.76-3.24,25.33-4.44,34.4.76-.21,1.5-.45,2.2-.72,1.24-9.44,3.65-27.88,4.3-33.44.93-8-1.11-13.29-6.62-17.06l-1.18,1.72C122.16,122.74,123.88,127.26,123,134.52Z"/><path class="cls-7" d="M127.25,184.56c1.43-.79,2.93-1.63,4.47-2.53.16-.39,4.49-11-2.35-18.47a12,12,0,0,0-4.05.57A19.43,19.43,0,0,1,127.25,184.56Z"/><path class="cls-10" d="M83.29,114c9.56,7.23,17.46,9.45,23.69,9.31a22.38,22.38,0,0,0,17-8.15S111.18,82.35,101.68,76c-5.14-3.46-11.62-3.46-14.82-5.78s-5.67-6.8-8.57-7.73c-13-4.23-12.79,8.36-14.35,21S83.29,114,83.29,114Z"/><path class="cls-7" d="M75.13,93.59c.36-.66.9-1.58,1.52-2.64,4-6.79,10.06-17,5.26-21.31-7.17-6.54-8-6.54-8.53-6.54a1.46,1.46,0,0,0-1.09.48c-4.49,4.35-9.82,10-9.82,12.23S68.91,88,72.76,93.71L74,95.63Z"/><path class="cls-6" d="M73.3,64.53C73.61,64,81,70.68,81,70.68c4.68,4.15-4.74,17.86-7.08,22.26,0,0-10-15-10-17.13S73.3,64.53,73.3,64.53Z"/><path class="cls-8" d="M71,67.39l2.77,9.73s7,20.07-2.36,17.56c-3.48-.93-8.25-15-8.25-15l-1.49-8.12Z"/><path class="cls-6" d="M73.24,77.12a10.28,10.28,0,0,1-1.78,4.82c-1.5,1.81-7.14,5.46-8.79,5.67a4.74,4.74,0,0,1-4.11-1c-1.27-1.07-4.75-10.73-4.75-10.73a9,9,0,0,1-1.26-3.4c-1.08-7.3,3.24-13.41,6.08-15.95A11.27,11.27,0,0,1,77.06,62.3c.75,3.67,0,9.57,0,9.57Z"/><path d="M66,53.25a12.8,12.8,0,0,1,3,.36,11.56,11.56,0,0,1,8.46,8.61c.75,3.69,0,9.46,0,9.71l0,.11c-.64,2-1.56,3.28-2.75,3.77l-1-1.66-.2.07A2.71,2.71,0,0,1,70.28,73a2.16,2.16,0,0,0-2.76-.89c-6.12,2.63-14.87,1.61-16.12-4.72C50.27,61.65,56.34,53.25,66,53.25Z"/><path class="cls-6" d="M74.35,71.78a2,2,0,0,1,2,.61,2.88,2.88,0,0,1,.65,2,5.25,5.25,0,0,1-.6,2.07A2.38,2.38,0,0,1,75,77.88C72.13,78.63,71.8,72.55,74.35,71.78Z"/><path class="cls-6" d="M144,106.78l4.59,2.1,4.94,1.69.64,1.84-.6,1.34.06,1.53-1.08,2-.17,1.31-2,1.57h-4.84a1.21,1.21,0,0,1-.9-.41l-.55-.63a1.19,1.19,0,0,1,.3-1.8l.44-.26L143.72,116l-3.11-6.46Z"/><path class="cls-12" d="M96.33,87.68,97.16,100s14.33,13.18,9.82,23.35a22.38,22.38,0,0,0,17-8.15S111.18,82.35,101.68,76c-5.14-3.46-11.62-3.46-14.82-5.78C93.62,76,99.18,81.87,96.33,87.68Z"/><path class="cls-10" d="M99,104c6.5,1.46,12.15,1,18.28,1.37.68,0,1.36.1,2,.17a15.48,15.48,0,0,0,2.37-12.57c-.78-.34-1.57-.67-2.37-1a85.5,85.5,0,0,0-14.43-4.28C85.46,84.13,88.79,102.05,99,104Z"/><path class="cls-6" d="M121.73,92.94c2.22,1,4.41,2,6.56,3.14,6.19,2.88,12.83,7.43,19.64,12.62,0,0,1.14,5.15-4.16,5.47l-17.45-7.39a43.45,43.45,0,0,0-7-1.27A15.47,15.47,0,0,0,121.73,92.94Z"/><path class="cls-6" d="M41.94,117.48,40.37,122a12.07,12.07,0,0,1-2.51,4.64,32.34,32.34,0,0,1-4.85,4.9l1.52.37c1.44.37.74,2.3-.56,2.05.73.64-.18,1.44-1.22,1.1.84.54.6,1.75-.53,1.37,0,0-3-.59-3.77-1.85s-.56-1.65-.56-1.65a1.83,1.83,0,0,1-1.43-2.47c.18-.75.34-1.26.34-1.26s-1-.3.31-2.34a41.23,41.23,0,0,1,4.68-5.29L36,120.2l3.41-3.81Z"/><path class="cls-7" d="M117.3,105.33l2,.18a15.48,15.48,0,0,0,2.37-12.57c-.78-.34-1.57-.67-2.37-1C119.41,92.11,121.25,97.1,117.3,105.33Z"/><path class="cls-7" d="M53.21,88.54c1.82,2.39,5.5,6.54,9.06,6.53l1.59-1.6s-5.07-.63-9.35-6.81C54.5,86.66,53.21,88.54,53.21,88.54Z"/><g class="cls-13"><path d="M36.4,154.73q2-1.47,4-2.87c1.9.1,3.75.17,5.55.24.42,1.11.83,2.32,1.23,3.64q-2,1.74-3.87,3.51L38,158.53C37.5,157.17,37,155.9,36.4,154.73Z"/><path class="cls-7" d="M25.26,164.22q1.74-1.69,3.55-3.32c1.81.36,3.61.69,5.41,1q.81,2.19,1.59,4.56c-1.23,1.22-2.45,2.46-3.66,3.7-1.74-.38-3.48-.78-5.2-1.19C26.41,167.35,25.84,165.76,25.26,164.22Z"/><path d="M32.12,170.28c-2-.45-3.66-.83-5.19-1.2-.67-1.82-1.22-3.37-1.77-4.82,1.17-1.25,2.37-2.36,3.58-3.44,1.71.29,3.48.62,5.5,1,.6,1.45,1.12,2.94,1.67,4.63-1.25,1.33-2.48,2.58-3.68,3.82A.15.15,0,0,1,32.12,170.28Zm2-8.28c-2-.35-3.71-.67-5.3-1-1.17,1-2.33,2.13-3.45,3.22.54,1.42,1.08,2.94,1.65,4.64,1.5.36,3.11.73,5.07,1.17,1.18-1.21,2.38-2.42,3.57-3.61C35.15,164.8,34.64,163.35,34.14,162Z"/><path class="cls-7" d="M34.22,161.91c1.25-1.15,2.52-2.27,3.8-3.38l5.32.72c.45,1.42.89,2.91,1.33,4.47q-1.85,1.89-3.68,3.79l-5.18-1Q35,164.1,34.22,161.91Z"/><path d="M41,167.61l-3.45-.69-1.79-.36c-.58-1.75-1.1-3.24-1.61-4.62,1.27-1.26,2.55-2.39,3.83-3.49,1.44.16,2.78.34,4.09.51l1.39.19c.44,1.41.88,2.87,1.35,4.54-1.26,1.36-2.49,2.62-3.71,3.89A.09.09,0,0,1,41,167.61Zm2.29-8.26L42,159.18l-3.95-.53c-1.25,1.07-2.5,2.18-3.71,3.29.5,1.34,1,2.79,1.54,4.43l1.67.34c1.15.22,2.28.45,3.39.68l3.6-3.71C44.09,162.07,43.67,160.65,43.26,159.35Z"/><path class="cls-7" d="M28.66,151.05c1.29-.71,2.63-1.38,4-2q3.11.09,6.11.12a19.15,19.15,0,0,1,1.66,2.69q-2.05,1.39-4,2.87c-1.88-.2-3.79-.41-5.71-.65A24.94,24.94,0,0,0,28.66,151.05Z"/><path d="M36.39,154.84c-2.08-.22-4-.43-5.72-.65a32.33,32.33,0,0,0-2.09-3.07L28.5,151l.11-.06c1.29-.7,2.63-1.38,4-2,2,.05,4.07.09,6.15.1a15.75,15.75,0,0,1,1.76,2.76l0,.09-.08.06c-1.36.92-2.71,1.88-4,2.86A.14.14,0,0,1,36.39,154.84Zm2.32-5.57c-2.05,0-4.08-.05-6-.11-1.31.6-2.61,1.25-3.85,1.92a24.72,24.72,0,0,1,1.92,2.9c1.74.22,3.58.42,5.62.63,1.27-1,2.59-1.88,3.92-2.78A18,18,0,0,0,38.71,149.27Z"/><path d="M18.17,158.47c1-.94,2.12-1.84,3.25-2.71,1.82.39,3.68.75,5.53,1.07.65,1.28,1.27,2.64,1.86,4.07q-1.81,1.62-3.55,3.32-2.62-.61-5.16-1.31C19.49,161.37,18.85,159.88,18.17,158.47Z"/><path class="cls-7" d="M27,156.83c1.21-1,2.46-1.86,3.74-2.75,1.92.24,3.83.45,5.71.65.56,1.17,1.1,2.44,1.62,3.8-1.28,1.11-2.55,2.23-3.8,3.38-1.8-.32-3.6-.65-5.41-1C28.22,159.47,27.6,158.11,27,156.83Z"/><path d="M34.2,162c-2-.35-3.79-.68-5.41-1-.69-1.55-1.32-2.91-1.94-4.13l0-.08.08-.05c1.2-.95,2.46-1.88,3.73-2.76l5.79.63a35.9,35.9,0,0,1,1.72,3.87l0,.07,0,.05c-1.28,1.1-2.56,2.24-3.81,3.38A.12.12,0,0,1,34.2,162Zm2.13-7.18c-2-.21-3.88-.42-5.62-.63-1.23.85-2.44,1.75-3.62,2.66.6,1.19,1.2,2.51,1.8,3.95,1.59.31,3.32.63,5.29,1,1.22-1.11,2.47-2.22,3.71-3.29C37.36,157.13,36.85,155.93,36.33,154.83Z"/><path class="cls-7" d="M17,166.23q1.5-1.71,3.11-3.32,2.53.69,5.16,1.31c.58,1.54,1.15,3.13,1.69,4.76q-1.75,1.82-3.46,3.69c-1.66-.44-3.28-.89-4.86-1.38Q17.85,168.73,17,166.23Z"/><path d="M23.46,172.78c-1.77-.47-3.36-.92-4.86-1.38-.64-1.92-1.17-3.57-1.71-5.13A45.34,45.34,0,0,1,20,162.83c1.7.41,3.39.84,5.25,1.28.64,1.52,1.19,3.08,1.78,4.83-1.2,1.33-2.37,2.57-3.49,3.81A.11.11,0,0,1,23.46,172.78Zm1.72-8.47c-1.83-.43-3.47-.85-5-1.28-1,1.05-2.06,2.13-3,3.23.53,1.53,1.06,3.15,1.61,4.94,1.46.45,3,.89,4.73,1.35,1.1-1.21,2.23-2.42,3.38-3.6C26.26,167.25,25.71,165.73,25.18,164.31Z"/><path d="M15.56,175.05q1.5-1.92,3.07-3.76,2.37.72,4.86,1.38c.53,1.69,1,3.4,1.54,5.11q-1.76,1.92-3.46,3.89c-1.61-.41-3.17-.84-4.66-1.29Q16.27,177.73,15.56,175.05Z"/><path class="cls-7" d="M7.3,187.24Q8.56,185.1,9.89,183c1.21.48,2.52.94,3.9,1.37.37,1.79.72,3.55,1.07,5.26-1.1,1.35-2.18,2.72-3.25,4.09-1.34-.31-2.58-.64-3.71-1Q7.62,190.08,7.3,187.24Z"/><path d="M11.58,193.86c-1.4-.33-2.62-.65-3.72-1-.29-2.17-.48-3.92-.67-5.61.86-1.5,1.73-2.92,2.61-4.28l0-.08.08,0c1.17.46,2.44.91,3.9,1.37.35,1.43.62,2.76.88,4.06l.27,1.33c-1.12,1.37-2.21,2.75-3.29,4.13A.13.13,0,0,1,11.58,193.86Zm2.91-5.45c-.26-1.29-.52-2.6-.79-3.92-1.4-.44-2.63-.87-3.77-1.33-.85,1.33-1.7,2.71-2.52,4.1.19,1.66.38,3.38.59,5.41,1.05.33,2.22.64,3.56,1,1.06-1.35,2.12-2.69,3.18-4Z"/><path class="cls-7" d="M13.79,184.4c1-1.36,2.06-2.69,3.12-4,1.49.45,3.05.88,4.66,1.29q.69,2.6,1.37,5.11l-3.54,3.91c-1.58-.33-3.1-.67-4.54-1C14.51,188,14.16,186.19,13.79,184.4Z"/><path d="M19.38,190.8c-1.69-.35-3.18-.69-4.55-1a10.4,10.4,0,0,1-.34-1.36q-.39-2-.81-4c1-1.44,2.09-2.79,3.15-4.1,1.51.38,3,.8,4.77,1.25.06,0,.54,1.79.54,1.79.3,1.14.61,2.27.91,3.39-1.21,1.4-2.39,2.71-3.57,4A.12.12,0,0,1,19.38,190.8Zm2.54-7.38-.44-1.66c-1.68-.43-3.16-.84-4.53-1.25-1,1.28-2,2.6-3,3.92.27,1.33.54,2.64.8,3.93l.24,1.21c1.33.33,2.78.66,4.41,1q1.73-1.92,3.46-3.82Q22.37,185.1,21.92,183.42Z"/><path class="cls-7" d="M23.49,172.67Q25.2,170.8,27,169c1.72.41,3.46.81,5.2,1.19q.78,2.46,1.55,5L30.09,179q-2.57-.6-5.06-1.22C24.53,176.07,24,174.36,23.49,172.67Z"/><path d="M30.07,179.11c-2-.47-3.61-.86-5.07-1.23-.66-2.07-1.15-3.69-1.61-5.18,1.14-1.34,2.31-2.58,3.48-3.8,1.64.34,3.29.72,5.3,1.17.54,1.5,1,3,1.64,5.05-1.23,1.39-2.44,2.67-3.64,4A.09.09,0,0,1,30.07,179.11Zm2-8.84c-2-.44-3.57-.81-5.07-1.17-1.15,1.18-2.28,2.4-3.37,3.6.45,1.46.92,3,1.49,5,1.44.36,3,.75,4.95,1.2q1.76-1.89,3.52-3.76C33,173.16,32.51,171.66,32.06,170.27Z"/><path class="cls-7" d="M9.94,168c.79-1.18,1.62-2.31,2.5-3.41q2.18.87,4.55,1.63.86,2.49,1.64,5.06-1.57,1.85-3.07,3.76c-1.47-.5-2.87-1-4.19-1.58Q10.71,170.71,9.94,168Z"/><path d="M15.52,175.16c-1.52-.52-2.93-1-4.19-1.59-.53-2-1-3.83-1.49-5.53a38.42,38.42,0,0,1,2.51-3.51l.05-.07.08,0c1.39.56,2.92,1.11,4.54,1.64.62,1.63,1.15,3.29,1.72,5.13-1.07,1.33-2.11,2.59-3.1,3.86l0,.06Zm1.38-8.84c-1.58-.51-3.07-1-4.43-1.59-.84,1.06-1.65,2.17-2.41,3.3.48,1.67.95,3.47,1.41,5.36,1.22.52,2.58,1,4,1.53,1-1.23,2-2.46,3-3.65C18,169.47,17.43,167.85,16.9,166.32Z"/><path d="M4,179.67c.53-1.41,1.11-2.79,1.73-4.12a25.62,25.62,0,0,0,3.17,1.82c.36,1.9.69,3.79,1,5.66q-1.34,2.07-2.59,4.21a18.23,18.23,0,0,1-2.8-1.48Q4.27,182.76,4,179.67Z"/><path class="cls-7" d="M8.88,177.37c.79-1.33,1.63-2.64,2.49-3.9,1.32.56,2.72,1.08,4.19,1.58q.71,2.67,1.35,5.33c-1.06,1.33-2.1,2.66-3.12,4-1.38-.43-2.69-.89-3.9-1.37C9.57,181.16,9.24,179.27,8.88,177.37Z"/><path d="M13.76,184.51c-1.46-.46-2.74-.91-3.91-1.38-.41-2.13-.75-4-1.08-5.74.81-1.4,1.65-2.72,2.51-4l.05-.07.09,0c1.25.54,2.66,1.07,4.17,1.59.49,1.66.94,3.41,1.43,5.41-1.07,1.41-2.12,2.76-3.14,4.11l-.05.06Zm1.71-9.37c-1.47-.5-2.83-1-4.06-1.54-.83,1.23-1.65,2.51-2.42,3.79.33,1.73.66,3.55,1,5.56,1.13.45,2.36.89,3.76,1.32,1-1.31,2-2.63,3-3.91C16.31,178.4,15.88,176.69,15.47,175.14Z"/><path d="M49.5,164.62c1.17-1.32,2.34-2.63,3.5-4,1.47.25,2.85.51,4.13.79.22,1.66.44,3.4.68,5.19q-1.45,2.11-3,4.18c-1.33-.42-2.75-.81-4.24-1.19C50.24,167.92,49.87,166.24,49.5,164.62Z"/><path class="cls-7" d="M38.84,176.34l3.57-3.89c1.66.39,3.29.78,4.86,1.18.44,1.73.89,3.48,1.35,5.23-1.08,1.31-2.17,2.59-3.29,3.86-1.62-.45-3.29-.88-5-1.29Q39.59,178.88,38.84,176.34Z"/><path d="M45.3,182.83c-1.48-.41-3.11-.83-5-1.29-.59-1.77-1.1-3.48-1.6-5.17,1.22-1.4,2.41-2.69,3.6-4,1.92.38,3.51.77,5,1.15.48,1.65,1,3.49,1.43,5.3-1.09,1.39-2.2,2.69-3.32,4A.13.13,0,0,1,45.3,182.83Zm1.88-9.11c-1.42-.36-3-.74-4.73-1.14-1.16,1.26-2.32,2.53-3.49,3.79q.74,2.48,1.48,5c1.82.44,3.41.86,4.85,1.25,1.09-1.23,2.17-2.5,3.21-3.75C48,177.06,47.57,175.27,47.18,173.72Z"/><path class="cls-7" d="M47.27,173.63q1.69-2,3.35-4c1.49.38,2.91.77,4.24,1.19.33,1.79.67,3.62,1,5.47-.92,1.36-1.87,2.68-2.84,4-1.41-.5-2.89-1-4.43-1.43C48.16,177.11,47.71,175.36,47.27,173.63Z"/><path d="M53,180.39c-1.35-.48-2.8-.94-4.43-1.42-.55-1.89-1-3.73-1.43-5.31,1.14-1.41,2.27-2.75,3.38-4.09,1.69.36,3.08.75,4.35,1.15.46,2.2.79,3.93,1.1,5.56-.93,1.44-1.88,2.78-2.85,4.07l0,.07Zm1.74-9.48c-1.23-.38-2.57-.76-4.1-1.15-1.08,1.31-2.18,2.62-3.27,3.9.39,1.55.85,3.34,1.32,5.11,1.58.47,3,.92,4.3,1.39.94-1.26,1.87-2.57,2.76-3.88C55.46,174.68,55.14,173,54.76,170.91Z"/><path class="cls-7" d="M43.34,159.25q1.92-1.77,3.87-3.51c1.7.15,3.33.3,4.89.46.3,1.4.6,2.9.9,4.47-1.16,1.32-2.33,2.63-3.5,4-1.55-.31-3.17-.61-4.83-.9C44.23,162.16,43.79,160.67,43.34,159.25Z"/><path d="M49.47,164.73c-1.4-.28-2.94-.57-4.82-.91-.55-1.74-1-3.2-1.41-4.54,1.29-1.28,2.6-2.46,3.9-3.62,1.57.1,3.31.26,5,.43h.08v.08c.29,1.29.58,2.75.91,4.47-1.19,1.41-2.36,2.73-3.53,4A.13.13,0,0,1,49.47,164.73ZM52,156.3l-4.75-.45c-1.27,1.13-2.54,2.29-3.78,3.43.41,1.31.84,2.73,1.29,4.34,1.82.32,3.32.6,4.7.88l3.42-3.86C52.57,159,52.28,157.56,52,156.3Z"/><path d="M32.15,170.17c1.21-1.24,2.43-2.48,3.66-3.7l5.18,1q.72,2.42,1.42,4.94l-3.57,3.89-5.14-1.19Q32.93,172.63,32.15,170.17Z"/><path class="cls-7" d="M41,167.51q1.83-1.9,3.68-3.79c1.66.29,3.28.59,4.83.9.37,1.62.74,3.3,1.12,5q-1.65,2-3.35,4c-1.57-.4-3.2-.79-4.86-1.18Q41.71,169.93,41,167.51Z"/><path d="M47.24,173.74c-1.45-.38-3-.76-4.85-1.18-.65-2.09-1.09-3.62-1.5-5,1.24-1.38,2.47-2.64,3.7-3.9,2,.3,3.52.59,4.93.87.45,1.68.81,3.3,1.21,5.11-1.13,1.43-2.26,2.78-3.38,4.08A.1.1,0,0,1,47.24,173.74Zm2.16-9c-1.37-.27-2.87-.55-4.69-.88q-1.8,1.84-3.59,3.71c.4,1.37.83,2.86,1.38,4.82,1.76.41,3.31.78,4.73,1.15,1.09-1.28,2.19-2.59,3.27-3.9C50.11,167.85,49.76,166.27,49.4,164.71Z"/><path class="cls-7" d="M30.09,179l3.61-3.85,5.14,1.19q.75,2.53,1.51,5.09c-1.17,1.28-2.36,2.54-3.56,3.8l-5.17-1.18C31.11,182.38,30.6,180.69,30.09,179Z"/><path d="M36.77,185.34c-1.66-.39-3.33-.77-5-1.14l-.25-.06c-.46-1.52-.91-3-1.35-4.48L30,179l3.65-3.9a7.44,7.44,0,0,1,1,.18l4.22,1c.58,1.77,1.09,3.47,1.6,5.17-1.18,1.36-2.38,2.64-3.59,3.91A.12.12,0,0,1,36.77,185.34Zm2-8.91-4.16-1-.85-.2Q32,177.15,30.22,179l.17.57c.44,1.46.87,2.91,1.31,4.36l.13,0,4.93,1.13c1.17-1.24,2.34-2.48,3.47-3.71C39.73,179.75,39.24,178.08,38.75,176.43Z"/><path d="M28,187.87q1.83-1.91,3.65-3.82l5.17,1.18c.53,1.66,1.06,3.29,1.62,4.88q-1.8,1.8-3.64,3.54c-1.78-.35-3.55-.68-5.3-1C29,191.1,28.46,189.5,28,187.87Z"/><path class="cls-7" d="M16.9,199.21c1.25-1.25,2.48-2.5,3.72-3.76,1.64.27,3.34.53,5.08.8.47,1.46,1,2.85,1.47,4.15-1.31,1.08-2.64,2.16-4,3.21L18,203.27C17.6,202,17.25,200.65,16.9,199.21Z"/><path d="M23.18,203.72l-3.2-.21-2.1-.13,0-.08c-.35-1.19-.7-2.52-1.06-4.07,1.27-1.35,2.5-2.6,3.74-3.86,1.65.22,3.25.47,5.18.77.59,1.62,1.06,3,1.55,4.22l0,.07-.06,0c-1.3,1.08-2.64,2.16-4,3.22Zm2.44-7.37-5-.78q-1.8,1.85-3.62,3.67c.35,1.49.68,2.77,1,3.93l1.94.12,3.16.21c1.31-1,2.62-2.08,3.88-3.14C26.57,199.15,26.1,197.84,25.62,196.35Z"/><path class="cls-7" d="M25.7,196.25c1.27-1.19,2.52-2.4,3.77-3.61,1.75.33,3.52.66,5.3,1,.56,1.5,1.12,2.95,1.72,4.33q-1.86,1.58-3.8,3.08-2.8-.36-5.52-.66C26.66,199.1,26.17,197.71,25.7,196.25Z"/><path d="M32.68,201.17c-1.65-.21-3.41-.42-5.53-.66-.57-1.32-1-2.68-1.55-4.23,1.28-1.29,2.55-2.51,3.79-3.72,1.8.29,3.62.63,5.4,1,.67,1.67,1.23,3.08,1.8,4.39l0,.08-.06.05c-1.25,1.06-2.53,2.1-3.8,3.09A.1.1,0,0,1,32.68,201.17Zm2-7.43c-1.74-.34-3.52-.67-5.19-1-1.21,1.18-2.45,2.37-3.67,3.52.48,1.49,1,2.8,1.41,4,2.08.24,3.8.45,5.42.66,1.24-1,2.48-2,3.69-3C35.8,196.67,35.26,195.29,34.69,193.74Z"/><path class="cls-7" d="M36.79,185.23c1.2-1.26,2.39-2.52,3.56-3.8,1.69.41,3.36.84,5,1.29.51,1.71,1,3.42,1.58,5.09q-1.62,1.81-3.32,3.54c-1.7-.43-3.44-.84-5.18-1.24C37.85,188.52,37.32,186.89,36.79,185.23Z"/><path d="M43.57,191.46c-1.58-.4-3.27-.81-5.19-1.24-.59-1.54-1.12-3.14-1.69-5,1.23-1.37,2.43-2.65,3.58-3.91,2,.43,3.61.86,5.09,1.26.63,1.95,1.15,3.62,1.65,5.17-1.09,1.3-2.21,2.49-3.34,3.65A.12.12,0,0,1,43.57,191.46Zm1.67-8.65c-1.44-.4-3-.81-4.85-1.26-1.13,1.23-2.3,2.47-3.47,3.71.56,1.76,1.07,3.32,1.57,4.76,1.87.42,3.53.82,5.07,1.21,1.1-1.13,2.18-2.28,3.22-3.44C46.29,186.27,45.78,184.64,45.24,182.81Z"/><path class="cls-7" d="M21.57,181.67q1.71-2,3.46-3.89,2.49.61,5.06,1.22c.51,1.69,1,3.38,1.53,5.05Q29.81,186,28,187.87q-2.56-.54-5-1.09Q22.26,184.26,21.57,181.67Z"/><path d="M28,188c-1.5-.32-3.27-.7-5-1.1-.39-1.19-.69-2.32-1-3.46l-.47-1.77c1.18-1.36,2.34-2.67,3.49-4,1.58.34,3.19.73,5.18,1.2a3.59,3.59,0,0,1,.27.7c.44,1.48.89,3,1.33,4.42-1.23,1.38-2.45,2.66-3.67,3.93A.12.12,0,0,1,28,188Zm2.23-8.32L30,179.1c-1.94-.46-3.51-.84-5-1.2-1.12,1.25-2.26,2.52-3.37,3.8l.45,1.66c.3,1.12.59,2.23.89,3.32,1.71.39,3.44.76,4.91,1.07q1.78-1.86,3.55-3.73C31.05,182.58,30.62,181.12,30.18,179.66Z"/><path d="M11.61,193.75c1.07-1.37,2.15-2.74,3.25-4.09,1.44.36,3,.7,4.54,1,.4,1.65.81,3.24,1.22,4.76-1.24,1.26-2.47,2.51-3.72,3.76-1.58-.2-3.09-.4-4.51-.62C12.13,197.06,11.87,195.44,11.61,193.75Z"/><path class="cls-7" d="M19.4,190.69l3.54-3.91q2.46.56,5,1.09c.49,1.63,1,3.23,1.5,4.77-1.25,1.21-2.5,2.42-3.77,3.61-1.74-.27-3.44-.53-5.08-.8C20.21,193.93,19.8,192.34,19.4,190.69Z"/><path d="M25.68,196.36l-5.08-.8c-.46-1.47-.85-3-1.31-4.84,1.21-1.41,2.39-2.72,3.57-4,1.89.37,3.73.76,5.14,1.06.62,1.88,1.11,3.44,1.57,4.85-1.27,1.32-2.54,2.54-3.79,3.72A.12.12,0,0,1,25.68,196.36Zm2.21-8.4c-1.39-.29-3.17-.67-4.91-1.06q-1.74,1.9-3.46,3.82c.44,1.8.82,3.28,1.18,4.63,1.52.25,3.09.49,5,.78,1.23-1.15,2.47-2.34,3.68-3.52C28.89,191.24,28.41,189.72,27.89,188Z"/><path class="cls-7" d="M54.86,170.83q1.5-2.07,3-4.18a29.44,29.44,0,0,1,3.26,1.23c.16,1.89.34,3.84.55,5.81q-1,2.15-2.19,4.19a37.88,37.88,0,0,0-3.54-1.58C55.53,174.45,55.19,172.62,54.86,170.83Z"/><path d="M59.38,178a37.27,37.27,0,0,0-3.53-1.58c-.39-1.7-.72-3.44-1.1-5.55,1-1.45,2-2.86,3-4.26l0-.07.08,0a28.58,28.58,0,0,1,3.28,1.23c.24,2.15.42,4.05.61,5.9-.7,1.49-1.44,2.9-2.2,4.26l-.06.09ZM61,168a32.52,32.52,0,0,0-3.12-1.17c-.94,1.37-1.9,2.74-2.88,4.08.38,2.06.7,3.76,1,5.36a35.92,35.92,0,0,1,3.41,1.52c.73-1.32,1.45-2.69,2.12-4.07C61.32,171.85,61.14,170,61,168Z"/><path d="M45.33,182.72c1.12-1.27,2.21-2.55,3.29-3.86,1.54.45,3,.93,4.43,1.43.44,1.8.9,3.61,1.38,5.4q-1.35,1.86-2.8,3.62c-1.52-.53-3.1-1-4.72-1.5C46.36,186.14,45.84,184.43,45.33,182.72Z"/><path class="cls-7" d="M53.05,180.29c1-1.31,1.92-2.63,2.84-4a37.88,37.88,0,0,1,3.54,1.58c.31,1.93.65,3.88,1,5.82-.67,1.3-1.37,2.55-2.12,3.77-1.21-.63-2.52-1.22-3.91-1.78C54,183.9,53.49,182.09,53.05,180.29Z"/><path d="M58.29,187.57a41.05,41.05,0,0,0-3.9-1.77c-.52-1.77-1-3.53-1.44-5.49,1-1.38,1.93-2.72,2.84-4.07l.05-.07.09,0a34.3,34.3,0,0,1,3.55,1.59c.39,2.11.73,4.07,1.08,5.89-.67,1.36-1.38,2.64-2.12,3.85l-.06.09Zm1-9.61a33.34,33.34,0,0,0-3.4-1.52c-.89,1.31-1.82,2.61-2.76,3.87.46,1.91.91,3.65,1.35,5.3a41,41,0,0,1,3.78,1.72c.72-1.18,1.4-2.4,2-3.64C60,181.88,59.66,180,59.33,178Z"/><path class="cls-7" d="M43.59,191.35q1.69-1.72,3.32-3.54c1.62.47,3.2,1,4.72,1.5.54,1.7,1.12,3.37,1.73,5-.92,1.06-1.87,2.08-2.87,3.07-1.66-.51-3.36-1-5.1-1.41Q44.46,193.74,43.59,191.35Z"/><path d="M50.46,197.47c-1.58-.48-3.29-.95-5.09-1.4-.68-1.49-1.27-3-1.88-4.68,1.15-1.27,2.27-2.46,3.33-3.65,1.84.47,3.38,1,4.84,1.47.64,1.84,1.22,3.52,1.8,5a35.77,35.77,0,0,1-2.89,3.18A.11.11,0,0,1,50.46,197.47Zm1.08-8.08c-1.42-.49-2.93-1-4.6-1.45-1,1.16-2.12,2.31-3.22,3.44.59,1.63,1.17,3.1,1.75,4.49,1.77.44,3.44.9,5,1.37,1-1,1.89-1.94,2.77-3C52.67,192.77,52.1,191.13,51.54,189.39Z"/><path class="cls-7" d="M34.77,193.65q1.84-1.74,3.64-3.54c1.74.4,3.48.81,5.18,1.24q.87,2.39,1.8,4.61-1.65,1.57-3.42,3-2.73-.56-5.48-1C35.89,196.6,35.33,195.15,34.77,193.65Z"/><path d="M42,199.11c-1.72-.35-3.52-.68-5.48-1-.65-1.38-1.21-2.79-1.8-4.4,1.25-1.27,2.47-2.45,3.66-3.65,2,.41,3.71.81,5.29,1.21.68,1.75,1.27,3.26,1.88,4.68l0,.07-.06,0c-1.1,1-2.25,2.06-3.43,3A.11.11,0,0,1,42,199.11Zm1.56-7.67c-1.54-.39-3.2-.79-5.07-1.21-1.16,1.16-2.35,2.32-3.54,3.45.57,1.54,1.11,2.92,1.66,4.2,1.93.33,3.69.66,5.38,1,1.14-.95,2.25-1.94,3.32-2.95C44.68,194.55,44.1,193.08,43.51,191.44Z"/><path d="M23.19,203.61c1.34-1.05,2.67-2.13,4-3.21q2.71.3,5.52.66a35.45,35.45,0,0,0,1.81,3.44c-1.31.85-2.65,1.67-4,2.46-2-.08-3.93-.13-5.83-.17A28.91,28.91,0,0,1,23.19,203.61Z"/><path class="cls-7" d="M32.69,201.06q1.94-1.5,3.8-3.08,2.74.47,5.48,1a41.8,41.8,0,0,0,2,3.78c-1.17.83-2.37,1.61-3.62,2.36-2-.24-3.93-.46-5.88-.64A35.45,35.45,0,0,1,32.69,201.06Z"/><path d="M40.36,205.25c-1.86-.23-3.78-.44-5.87-.64a28.73,28.73,0,0,1-1.9-3.5l0-.08.06-.05c1.28-1,2.55-2,3.79-3.09,2.06.32,3.86.65,5.58,1,.74,1.44,1.42,2.71,2.1,3.84l.06.08-.09.06c-1.16.83-2.38,1.62-3.63,2.37Zm1.53-6.15c-1.69-.34-3.44-.67-5.37-1-1.21,1-2.45,2-3.69,3a35.36,35.36,0,0,0,1.74,3.29c2,.2,4,.41,5.78.64,1.2-.72,2.38-1.49,3.5-2.28C43.19,201.66,42.53,200.43,41.89,199.1Z"/></g><path class="cls-14" d="M17.83,180.76a15.94,15.94,0,0,0,30.09-9.12,15.94,15.94,0,1,1-30.09,9.12Z"/><path class="cls-7" d="M79,108.35a5,5,0,0,0,.78,0A2,2,0,0,0,81,108a1,1,0,0,0,.14-1.17c-.18.28-.56.45-1.26.45a5,5,0,0,1-3.82-2c-.88-1.25-.41-2.3,1.29-2.3a6.25,6.25,0,0,1,4.86,2.75c.94,1.32,1.11,2.29.72,2.93a2.7,2.7,0,0,1-2.32.89,7.44,7.44,0,0,1-.82,0Zm-1.17-3.2a2.35,2.35,0,0,0,1.82,1c.48,0,.69-.2.7-.42a.8.8,0,0,0-.17-.38A2.87,2.87,0,0,0,78.11,104C77.49,104,77.36,104.48,77.84,105.15Z"/><path class="cls-6" d="M322.18,264c-1.92.3-6.39-.5-11.18-1.87-5.66-1.62-11.7-4-14.58-6.32-2.21-1.79-6.19-5.1-10.24-8.63-.24-.19-.47-.41-.72-.62a13,13,0,0,0,3.32-.45,10.14,10.14,0,0,0,5.53-3.85c.19-.26.35-.52.52-.8a9.21,9.21,0,0,0,.45-.81,17.37,17.37,0,0,0,1.09-2.57c3.38,4.63,6.81,9.13,6.81,9.13l19,10.19S326.34,263.35,322.18,264Z"/><path class="cls-7" d="M289.9,228.49c-1.17-2.86-6.81-11-6.81-11s-11.13,13.85-9.6,17.3a.23.23,0,0,0,0,.11c.91,1.63,4.81,6.35,9.53,10.77,5.56-.62,9.74-4,12.12-9.2A72.25,72.25,0,0,1,289.9,228.49Z"/><path d="M283.05,245.63c.59.55,1.19,1.1,1.8,1.63a8.27,8.27,0,0,0,1.33-.08,10.82,10.82,0,0,0,2.89-.68,11.3,11.3,0,0,0,5.24-4.24c.19-.26.35-.52.52-.8s.31-.54.45-.81a17.37,17.37,0,0,0,1.09-2.57l-1.2-1.65C292,241.47,288,244.59,283.05,245.63Z"/><path class="cls-6" d="M318.79,257.21l.15-5.4c0-1.89,1.68-2.46,2.19-.74l.93,3.07,2-6.88c.5-1.66,1.94-1.56,1.89,0l-.34,5h1l3.51-5.9c1.12-1.61,2.2-.75,1.66.54l-2.49,6.39.39.39,4.44-4.73c1.49-1.47,2.15-.25,1.52.68L331.72,255l.39.73,3.47-2.25c1.12-.8,1.9.17,1.12,1l-3.81,3.71s-4.69,6.75-11.17,5.92S318.79,257.21,318.79,257.21Z"/><path class="cls-9" d="M311,262.12c-5.63-1.61-11.67-4-14.55-6.31-2.21-1.79-6.19-5.1-10.24-8.63a8.27,8.27,0,0,1-1.33.08c-5.51-4.83-10.31-10.56-11.33-12.4a.23.23,0,0,1,0-.11l5.9-1.58,9.39,12.94.29.39A63.78,63.78,0,0,0,311,262.12Z"/><path class="cls-6" d="M277.61,214.37c0-.29,7.23-12.39,7.23-12.39l-11.52-6.63-9,6.82Z"/><path d="M197.73,222.37S207.85,215,212.84,226l-9.46,7.15Z"/><path class="cls-7" d="M194.38,242.39v6.14s-2.49.8-5.71,2.23A38.4,38.4,0,0,0,178,257.4l-9.46-3.31,2.54-3.71s3.39-1.67,8.17-6.78a61.64,61.64,0,0,0,5.38-6.59S193.5,237.49,194.38,242.39Z"/><path d="M146.32,244.7s4.14-2.71,11.75,1.39,13,4.29,13,4.29a2.68,2.68,0,0,0,1.82,1.81c1.23.23,5.7.73,6.09,1.9s.58,2.53-1,3.32-3.5,3.5-6.73,3.12S146.32,244.7,146.32,244.7Z"/><path class="cls-7" d="M155.82,228.17c-.92.17-1.81.31-2.68.43-1.33.19-2.59.32-3.81.41-9.7.73-16.65-1.19-21.14-2.22-6.25-1.42-16.63-1.72-16.63-1.72-4.92-5.23-2-8-1.51-8,5.07.14,21.28-2.7,38.76-4,1.24-.09,2.48-.19,3.73-.27l3.13-.17C152.43,217.33,153.32,223.26,155.82,228.17Z"/><path d="M235.79,258.93A111.39,111.39,0,0,0,223.61,265a21.07,21.07,0,0,1-10.77.29c-12.67-2.59-23.76-22-23.76-22-3.27-1-17.31-7.49-23.9-11.77,0-7.51,1.52-11.81,3.88-15.08.32-.44.66-.87,1-1.28a30.74,30.74,0,0,1,2.39-2.46c16.57,2.17,35.75,11.86,35.75,11.86l4.63.13C223.73,230.32,235.79,258.93,235.79,258.93Z"/><path class="cls-7" d="M216.2,230.33l-.08,1.53c-1.77-.09-17.49-1-20.91-4.78-2.51-2.77-19-8.38-26.15-10.61.32-.44.66-.87,1-1.28,5.15,1.63,23.29,7.56,26.27,10.85C198.89,228.85,211.54,230.09,216.2,230.33Z"/><path class="cls-6" d="M172.45,212.73c-1.33-.18-2.65-.31-3.93-.37-4.19-.11-8.52,0-12.86.19-3.23,4.78-2.34,10.72.16,15.62,1.89-.35,3.87-.8,5.93-1.37l3.44,2.25C165.82,222.55,168.23,216.71,172.45,212.73Z"/><path d="M112.84,225.41s-8,2.57-10.29,1.29-2.35-3.43-5.79-4.92-3.39-8.07-3.1-9.78a4.45,4.45,0,0,1,1.21-2.4l.28-.27a.16.16,0,0,1,.08-.05,3.82,3.82,0,0,1,1.53-.77s2,.07,4.74,3.34,8.55,5.17,8.55,5.17-1.75,2.81-.81,4.21,3.76,1.48,4.05,2.83S112.84,225.41,112.84,225.41Z"/><path class="cls-15" d="M104.43,221.92c-.07,2,.31,5.5-1.88,4.78-2.33-1.29-2.35-3.43-5.79-4.92s-3.39-8.07-3.1-9.78a4.45,4.45,0,0,1,1.21-2.4l.28-.27a.16.16,0,0,1,.08-.05c.45-.29,1.32-.38,2.42,1.61a52.38,52.38,0,0,0,3.2,5.39C101.79,217.57,104.5,219.91,104.43,221.92Z"/><path class="cls-15" d="M145.1,246.48c-.2,2.05,1.17,7.8,4.78,9.75a26.57,26.57,0,0,0,12.49,3.22c4.49,0,7.12,1.37,8.88,1.08s4.78-2.15,2.93-5.56-10.74-3.91-12.89-5.47-7.51-5.46-11.7-5.56S145.1,246.48,145.1,246.48Z"/><path d="M153.14,228.6c-1.33.19-2.59.32-3.81.41-2.3-5.59-2.88-11-.52-16,1.24-.09,2.48-.19,3.73-.27C150.17,217.78,150.65,223.11,153.14,228.6Z"/><path class="cls-7" d="M286.36,222.36C276.61,247.73,223.62,265,223.62,265c2.39-7.94-8.34-28.11-13.17-36.59-1.34-2.39-2.24-3.85-2.24-3.85,13.87-3.17,27.68-11.48,34.22-19.08a16,16,0,0,0,3.77-6.65,23.67,23.67,0,0,1,14-1.12c6,1.41,11.47,7,15.23,10.77C283.37,216.43,286.36,222.36,286.36,222.36Z"/><path class="cls-9" d="M249.48,204.86c-2.13,14.64-34.25,22.49-39,23.58-1.34-2.39-2.24-3.85-2.24-3.85,13.87-3.17,27.68-11.48,34.22-19.08Z"/><path class="cls-6" d="M226.23,200.59l-4.63.6L195.32,200l-3.38,3.7s19.12,8.06,25.11,8.62c1.83.17,5.7.26,9,.21C228.06,208.55,228.54,204.56,226.23,200.59Z"/><path class="cls-6" d="M197.73,202.47,195.32,200l-4-2.79s-6.77-2.08-8.65-1.82a14.68,14.68,0,0,0-4.65,2.15.62.62,0,0,0-.3.53v.24l-.46.31a1,1,0,0,0-.45.84v.48c-.79.71-.29,1.71.46,1.5l4.36-1.89a15.38,15.38,0,0,0,4.16,1.56c2.54.59,2.41,2,4.55,2.41s1.57.18,1.57.18l5.79.66Z"/><path d="M226.23,200.59c-1.1,5.67-1.2,10.61.12,13l2.05,0-.08-13.21Z"/><path class="cls-7" d="M258.64,197.43s-6.11-3.16-19.74,1.53l-10.58,1.36a34.74,34.74,0,0,0,.08,13.21c6.87-.13,14-.45,17.79-1.76C246.19,211.77,263.75,206.39,258.64,197.43Z"/><path class="cls-6" d="M269.37,200.66s-5.42-.68-3.22-6.19,2.78-9.32,6.19-12.1,8.1-5.91,14.44-3.27,7.66,8.05,7,11.17-2.2,7.42-5.42,9.17-3.55,2.54-3.55,2.54Z"/><path d="M270.87,183.83s2.64.24,3,2.57a16.08,16.08,0,0,1,0,2.8l.75,1.23s.75,2.86,0,4.43-.56,3,2.18,4,6.66,4,6.91,5c0,0,.7,0,2.13-1.4s7.12-4,8.14-7.18,3.89-10.77-4.3-16.43C280.94,172.91,268,178.28,270.87,183.83Z"/><path class="cls-6" d="M273.84,189.73a7.4,7.4,0,0,0-.13,2.93c.29,1.31,5.09-1.57,3.85-5.08C276.39,184.27,273.84,189.73,273.84,189.73Z"/><path class="cls-9" d="M194.38,242.39v6.14s-2.49.8-5.71,2.23c-2-5.48-9.44-7.16-9.44-7.16a61.64,61.64,0,0,0,5.38-6.59S193.5,237.49,194.38,242.39Z"/><path class="cls-16" d="M95.3,210.94c0,.47-.2.86-.45.86s-.44-.39-.44-.86.2-.86.44-.86S95.3,210.46,95.3,210.94Z"/><path class="cls-16" d="M97.1,212.55c0,.48-.2.86-.44.86s-.45-.38-.45-.86.2-.85.45-.85S97.1,212.08,97.1,212.55Z"/><path class="cls-16" d="M101.62,224.82c0,.47-.2.85-.44.85s-.45-.38-.45-.85.2-.86.45-.86S101.62,224.34,101.62,224.82Z"/><path class="cls-16" d="M102.51,221.14c0,.47-.2.86-.44.86s-.45-.39-.45-.86.2-.86.45-.86S102.51,220.67,102.51,221.14Z"/><path class="cls-16" d="M150.54,245.82a.75.75,0,1,1-1.49,0,.75.75,0,1,1,1.49,0Z"/><path class="cls-16" d="M156,247.85a.75.75,0,1,1-.74-.85A.8.8,0,0,1,156,247.85Z"/><ellipse class="cls-16" cx="148.31" cy="251.79" rx="0.74" ry="0.86"/><path class="cls-16" d="M153.81,255.58a.75.75,0,1,1-1.49,0,.75.75,0,1,1,1.49,0Z"/><path class="cls-16" d="M170.75,258.85A.75.75,0,1,1,170,258,.81.81,0,0,1,170.75,258.85Z"/><path class="cls-16" d="M170.75,253.87a.75.75,0,1,1-1.49,0,.75.75,0,1,1,1.49,0Z"/><path class="cls-16" d="M94.42,216.37c0,.47-.2.86-.44.86s-.45-.39-.45-.86.2-.86.45-.86S94.42,215.9,94.42,216.37Z"/><path class="cls-16" d="M95.75,218.64c0,.47-.2.86-.45.86s-.45-.39-.45-.86.2-.86.45-.86S95.75,218.17,95.75,218.64Z"/><path d="M259,217.29s-4.58-2-4.58-2l3.77-3.27,6.23,2.78,2.39,3.38L242.67,233,239.89,229Z"/><path d="M250.27,232.46a9.08,9.08,0,0,0,1.37,4.95,3.86,3.86,0,0,0,5.49,1.2c2.39-1.45,2.25-3.82,1-5.62l-1.17-1.66,4.05-2.48,1.12,1.58c1,1.34,2.94,2.65,5,1.4,1.45-.89,1.92-2.41.71-4.12a8.64,8.64,0,0,0-4-2.75l3.5-3.33a11.53,11.53,0,0,1,5.64,4.26c2.63,3.72,1.37,7.44-1.94,9.47a7.31,7.31,0,0,1-7.87.25l-.07,0c.95,2.41-.05,5.44-3.21,7.37a8.89,8.89,0,0,1-12.44-2.58,9.71,9.71,0,0,1-1.95-6.22Z"/><ellipse class="cls-5" cx="44" cy="231.44" rx="18.79" ry="10.85"/></g></g></g></svg>